<svg part="shareIcon" xmlns="http://www.w3.org/2000/svg" viewBox="0 0 117 117" class="icon"><title>Share icon</title><desc>Square with upward arrow</desc><path d="m92.32,34.13h-23.38v5.28h23.38c1.72,0,3.04,1.32,3.04,2.91v58.77c0,1.58-1.32,2.91-3.04,2.91H24.43c-1.72,0-3.04-1.32-3.04-2.9v-58.64c0-1.58,1.32-2.91,3.04-2.91h20.74v-5.28h-20.74c-4.62,0-8.32,3.7-8.32,8.19v58.77c0,4.49,3.7,8.19,8.32,8.19h67.88c4.62,0,8.32-3.7,8.32-8.19v-58.77c0-4.62-3.7-8.32-8.32-8.32h.01Z" style="stroke-width:0px;"/><path d="m55.73,9.56v69.21h5.28V9.56l13.6,10.04,3.17-4.23L58.37.98l-19.41,14.4,3.17,4.23,13.6-10.04h0Z" /></svg>
