<svg part="shareIcon" xmlns="http://www.w3.org/2000/svg" viewBox="0 0 117 117" class="icon"><title>Share icon</title><desc>Square with arrow coming out to the right</desc><polygon points="91.23 109.42 6.46 109.42 6.46 38.04 12.46 38.04 12.46 103.42 85.23 103.42 85.23 93.05 91.23 93.05 91.23 109.42" style="stroke-width:0px;"/><path d="m79.5,86.98v-20.93c-7.62.28-28.89,2.31-46.16,15.73l-5.47,4.25.64-6.9c4-43.17,39.92-47.46,50.99-47.74V10.1l37.95,38.49-37.95,38.39Zm.62-49.64c-8.39,0-38.1,2.39-44.67,35.65,21.84-13.77,46.06-13.01,47.17-12.97l2.88.11v12.24l23.52-23.79-23.52-23.86v12.92l-3.23-.24c-.21-.01-.97-.06-2.15-.06Z" /></svg>
